# xmcd
#
# Track frame offsets:
#	150
#	4897
#	9210
#	15160
#	24587
#	36052
#	50100
#	61490
#	76760
#	99225
#	111270
#	130482
#	144987
#	154735
#	171087
#	183930
#	201457
#	222725
#	234047
#	251805
#	264420
#	265545
#	281572
#	295710
#
# Disc length: 4178 seconds
#
# Revision: 1
# Processed by: cddbd v1.5.1PL0 Copyright (c) Steve Scherf et al.
# Submitted via: CDex 1.50Beta5
#
DISCID=45105018
DTITLE=JAY-Z - DJ HAZIME プレゼンツ・ロッカフェラ・ミックス
DYEAR=2002
DGENRE=
TTITLE0=JAY-Z/フリースタイル
TTITLE1=JAY-Z/ソー・ゲットー
TTITLE2=JAY-Z/1-900-ハ・ス・ラー
TTITLE3=メンフィス・ブリーク/チェンジ・アップ
TTITLE4=JAY-Z/ジガ・マイ・ニガ
TTITLE5=メンフィス・ブリーク/メンフィス・ブリーク・イズ…
TTITLE6=ビーニー・シーゲル/フー・ウォント・ホワット
TTITLE7=メンフィス・ブリーク/マーダー・4・ライフ
TTITLE8=JAY-Z/キャン・アイ・ゲッタ…
TTITLE9=ビーニー・シーゲル/マック・マン
TTITLE10=DJクルー/カミング・フォー・ユー
TTITLE11=JAY-Z/イン・ザ・クラブ
TTITLE12=ビーニー・シーゲル/R.O.C,THE
TTITLE13=JAY-Z/マネー、キャッシュ、ホーズ
TTITLE14=ビーニー・シーゲル/ビーニー(マック・ビッチ)
TTITLE15=JAY-Z/チェンジ・ザ・ゲーム
TTITLE16=JAY-Z/ドゥ・イット・アゲイン(プット・ヤ・ハンズ・アップ)
TTITLE17=メンフィス・ブリーク/ドゥ・マイ…
TTITLE18=メンフィス・ブリーク/マイ・マインド・ライト(リミックス)
TTITLE19=ビーニー・シーゲル/ソー・ホワット・ユー・セイング
TTITLE20=DJクルー/バック・2・ライフ 2001
TTITLE21=DJクルー/ベスト・オブ・ミー・パート 2
TTITLE22=JAY-Z/エニシング
TTITLE23=JAY-Z/ハード・ノック・ライフ(ザ・ゲットー・アンセム)
EXTD=
EXTT0=
EXTT1=
EXTT2=
EXTT3=
EXTT4=
EXTT5=
EXTT6=
EXTT7=
EXTT8=
EXTT9=
EXTT10=
EXTT11=
EXTT12=
EXTT13=
EXTT14=
EXTT15=
EXTT16=
EXTT17=
EXTT18=
EXTT19=
EXTT20=
EXTT21=
EXTT22=
EXTT23=
PLAYORDER=
